<?xml version="1.0" encoding="UTF-8" standalone="no"?>
<svg width="16" height="16" viewBox="0 0 16 16" fill="none" xmlns="http://www.w3.org/2000/svg">
  <path d="M1.5 1H6.5L8 2.5H14.5C14.7761 2.5 15 2.72386 15 3V13.5C15 13.7761 14.7761 14 14.5 14H1.5C1.22386 14 1 13.7761 1 13.5V1.5C1 1.22386 1.22386 1 1.5 1Z" fill="#00BCD4"/>
  <path d="M1 3H15V4H1V3Z" fill="#006064" fill-opacity="0.4"/>
  <path d="M5 5L7 6.5L5 8" stroke="white" stroke-width="1.2" stroke-linecap="round" stroke-linejoin="round"/>
  <path d="M11 8L9 6.5L11 5" stroke="white" stroke-width="1.2" stroke-linecap="round" stroke-linejoin="round"/>
  <path d="M8.5 5L7.5 9" stroke="white" stroke-width="1.2" stroke-linecap="round"/>
  <path d="M4.5 11L6 12L7.5 11L9 12L11.5 11" stroke="white" stroke-width="1.2" stroke-linecap="round" stroke-linejoin="round"/>
</svg> 