<?xml version="1.0" encoding="UTF-8" standalone="no"?>
<svg width="16" height="16" viewBox="0 0 16 16" fill="none" xmlns="http://www.w3.org/2000/svg">
  <path d="M1.5 1H6.5L8 2.5H14.5C14.7761 2.5 15 2.72386 15 3V13.5C15 13.7761 14.7761 14 14.5 14H1.5C1.22386 14 1 13.7761 1 13.5V1.5C1 1.22386 1.22386 1 1.5 1Z" fill="#9575CD"/>
  <path d="M1 3H15V4H1V3Z" fill="#311B92" fill-opacity="0.7"/>
  <path d="M1 4H15L14 12H2L1 4Z" fill="#673AB7"/>
  <path d="M4 6H12V8H4V6Z" stroke="white" stroke-width="1.2" stroke-linejoin="round"/>
  <path d="M4 10H12V12H4V10Z" stroke="white" stroke-width="1.2" stroke-linejoin="round"/>
  <path d="M3 7L2 7" stroke="white" stroke-width="1.2" stroke-linecap="round"/>
  <path d="M3 11L2 11" stroke="white" stroke-width="1.2" stroke-linecap="round"/>
  <path d="M14 7L13 7" stroke="white" stroke-width="1.2" stroke-linecap="round"/>
  <path d="M14 11L13 11" stroke="white" stroke-width="1.2" stroke-linecap="round"/>
</svg> 