<?xml version="1.0" encoding="UTF-8" standalone="no"?>
<svg width="16" height="16" viewBox="0 0 16 16" fill="none" xmlns="http://www.w3.org/2000/svg">
  <path d="M1.5 1H6.5L8 2.5H14.5C14.7761 2.5 15 2.72386 15 3V13.5C15 13.7761 14.7761 14 14.5 14H1.5C1.22386 14 1 13.7761 1 13.5V1.5C1 1.22386 1.22386 1 1.5 1Z" fill="#1E88E5"/>
  <path d="M1 3H15V4H1V3Z" fill="#0D47A1" fill-opacity="0.4"/>
  <path d="M11 7.5C11 8.88071 9.88071 10 8.5 10C7.11929 10 6 8.88071 6 7.5C6 6.11929 7.11929 5 8.5 5C9.88071 5 11 6.11929 11 7.5Z" stroke="white" stroke-width="1.2"/>
  <path d="M6 11.5L8.5 7.5L11 11.5" stroke="white" stroke-width="1.2" stroke-linecap="round" stroke-linejoin="round"/>
  <path d="M7 11.5H10" stroke="white" stroke-width="1.2" stroke-linecap="round"/>
</svg> 