<?xml version="1.0" encoding="UTF-8" standalone="no"?>
<svg width="16" height="16" viewBox="0 0 16 16" fill="none" xmlns="http://www.w3.org/2000/svg">
  <path d="M1.5 1H6.5L8 2.5H14.5C14.7761 2.5 15 2.72386 15 3V13.5C15 13.7761 14.7761 14 14.5 14H1.5C1.22386 14 1 13.7761 1 13.5V1.5C1 1.22386 1.22386 1 1.5 1Z" fill="#FFCCBC"/>
  <path d="M1 3H15V4H1V3Z" fill="#E64A19" fill-opacity="0.6"/>
  <path d="M1 4H15L14 12H2L1 4Z" fill="#FFAB91"/>
  <path d="M6 6V12H10V6H6Z" stroke="#1A1A1A" stroke-width="1.2" stroke-linejoin="round"/>
  <path d="M3 8H6" stroke="#1A1A1A" stroke-width="1.2" stroke-linecap="round"/>
  <path d="M10 8H13" stroke="#1A1A1A" stroke-width="1.2" stroke-linecap="round"/>
  <path d="M3 10H6" stroke="#1A1A1A" stroke-width="1.2" stroke-linecap="round"/>
  <path d="M10 10H13" stroke="#1A1A1A" stroke-width="1.2" stroke-linecap="round"/>
</svg> 