<?xml version="1.0" encoding="UTF-8" standalone="no"?>
<svg width="16" height="16" viewBox="0 0 16 16" fill="none" xmlns="http://www.w3.org/2000/svg">
  <path d="M1.5 1H6.5L8 2.5H14.5C14.7761 2.5 15 2.72386 15 3V13.5C15 13.7761 14.7761 14 14.5 14H1.5C1.22386 14 1 13.7761 1 13.5V1.5C1 1.22386 1.22386 1 1.5 1Z" fill="#7E57C2"/>
  <path d="M1 3H15V4H1V3Z" fill="#311B92" fill-opacity="0.4"/>
  <path d="M4 5H12V7H4V5Z" stroke="white" stroke-width="1.2" stroke-linejoin="round"/>
  <path d="M4 9H12V11H4V9Z" stroke="white" stroke-width="1.2" stroke-linejoin="round"/>
  <path d="M3 6L2 6" stroke="white" stroke-width="1.2" stroke-linecap="round"/>
  <path d="M3 10L2 10" stroke="white" stroke-width="1.2" stroke-linecap="round"/>
  <path d="M14 6L13 6" stroke="white" stroke-width="1.2" stroke-linecap="round"/>
  <path d="M14 10L13 10" stroke="white" stroke-width="1.2" stroke-linecap="round"/>
</svg> 