<?xml version="1.0" encoding="UTF-8" standalone="no"?>
<svg width="16" height="16" viewBox="0 0 16 16" fill="none" xmlns="http://www.w3.org/2000/svg">
  <path d="M1.5 1H6.5L8 2.5H14.5C14.7761 2.5 15 2.72386 15 3V13.5C15 13.7761 14.7761 14 14.5 14H1.5C1.22386 14 1 13.7761 1 13.5V1.5C1 1.22386 1.22386 1 1.5 1Z" fill="#2196F3"/>
  <path d="M1 3H15V4H1V3Z" fill="#1565C0" fill-opacity="0.8"/>
  <path d="M1 4H15L14 12H2L1 4Z" fill="#64B5F6"/>
  <path d="M3 8L3 12H4V10H5.5V9H4V8H6V7H3Z" fill="#1A1A1A"/>
  <path d="M6.5 7H7.5V9H8.5V7H9.5V12H8.5V10H7.5V12H6.5V7Z" fill="#1A1A1A"/>
  <path d="M10 8.5V7.5H13V8.5H12V11H13V12H10V11H11V8.5H10Z" fill="#1A1A1A"/>
</svg> 