<?xml version="1.0" encoding="UTF-8"?>
<svg width="16" height="16" viewBox="0 0 16 16" fill="none" xmlns="http://www.w3.org/2000/svg">
    <path d="M2 4C2 3.44772 2.44772 3 3 3H6.58579C6.851 3 7.10536 3.10536 7.29289 3.29289L8.70711 4.70711C8.89464 4.89464 9.149 5 9.41421 5H13C13.5523 5 14 5.44772 14 6V12C14 12.5523 13.5523 13 13 13H3C2.44772 13 2 12.5523 2 12V4Z" fill="#C5C5C5"/>
    <path d="M2 4C2 3.44772 2.44772 3 3 3H6.58579C6.851 3 7.10536 3.10536 7.29289 3.29289L8.70711 4.70711C8.89464 4.89464 9.149 5 9.41421 5H13C13.5523 5 14 5.44772 14 6V12C14 12.5523 13.5523 13 13 13H3C2.44772 13 2 12.5523 2 12V4Z" stroke="#424242" stroke-width="1" stroke-linecap="round" stroke-linejoin="round"/>
    <path d="M5 7H11M5 9H11M5 11H9" stroke="#424242" stroke-width="1" stroke-linecap="round" stroke-linejoin="round"/>
    <path d="M6 5H10V7H6V5Z" fill="#424242"/>
    <path d="M7 5L9 7M9 5L7 7" stroke="#C5C5C5" stroke-width="1" stroke-linecap="round" stroke-linejoin="round"/>
</svg> 